<?xml version="1.0" standalone="no"?>
<!DOCTYPE svg PUBLIC "-//W3C//DTD SVG 20010904//EN"
 "http://www.w3.org/TR/2001/REC-SVG-20010904/DTD/svg10.dtd">
<svg version="1.0" xmlns="http://www.w3.org/2000/svg"
 width="229.000000pt" height="221.000000pt" viewBox="0 0 229.000000 221.000000"
 preserveAspectRatio="xMidYMid meet">
<metadata>
Created by potrace 1.10, written by Peter Selinger 2001-2011
</metadata>
<g transform="translate(0.000000,221.000000) scale(0.100000,-0.100000)"
fill="#000000" stroke="none">
<path d="M625 1801 c-51 -23 -85 -70 -85 -115 0 -19 -4 -38 -10 -41 -5 -3 -10
-28 -10 -54 0 -37 6 -54 25 -75 16 -17 22 -32 18 -44 -6 -15 -5 -15 10 -3 15
12 21 9 19 -10 -2 -14 110 -19 136 -7 35 17 72 74 72 109 0 16 4 29 9 29 32 0
58 88 31 105 -5 3 -7 12 -4 20 14 35 -79 98 -121 81 -7 -2 -16 2 -19 10 -7 18
-22 17 -71 -5z m67 -24 c7 -7 22 -14 33 -15 79 -6 80 -7 83 -32 2 -14 8 -35
14 -48 16 -31 -1 -77 -27 -77 -14 0 -21 -8 -23 -25 -10 -87 -60 -129 -125
-106 -60 20 -89 56 -95 115 -3 36 -1 51 7 51 7 0 11 12 10 28 -4 57 0 72 23
72 12 0 31 -9 43 -20 25 -23 116 -73 122 -66 10 9 -10 28 -51 48 -119 57 -124
62 -73 77 44 13 44 13 59 -2z"/>
<path d="M1477 1788 c-13 -13 -28 -23 -34 -21 -14 5 -41 -63 -49 -122 -4 -27
-12 -56 -18 -64 -8 -11 -8 -15 2 -18 6 -3 12 -11 12 -19 0 -8 5 -14 10 -14 6
0 10 -8 11 -17 0 -10 14 -29 31 -42 24 -20 43 -25 92 -25 77 -1 109 20 127 84
7 25 16 50 21 56 5 8 1 13 -12 17 -23 6 -34 -7 -26 -29 3 -8 -3 -31 -14 -52
-27 -51 -68 -66 -130 -48 -50 15 -73 45 -83 113 -6 34 -4 44 10 52 14 7 15 12
4 25 -11 13 -11 21 0 46 8 16 21 30 31 30 9 0 19 9 23 19 11 35 68 33 150 -6
36 -16 68 -81 59 -117 -3 -13 -1 -26 4 -30 5 -3 12 13 16 36 5 33 2 51 -17 87
-13 25 -27 46 -33 47 -5 0 -22 6 -39 14 -16 7 -51 15 -77 17 -40 5 -50 2 -71
-19z"/>
<path d="M1500 1731 c0 -5 16 -17 36 -27 20 -11 44 -23 55 -29 10 -5 19 -13
19 -17 0 -5 9 -8 20 -8 42 0 20 21 -70 67 -49 25 -60 28 -60 14z"/>
<path d="M870 877 c0 -6 -3 -8 -6 -4 -4 3 -23 -2 -43 -12 -20 -10 -56 -22 -81
-26 -25 -4 -57 -16 -72 -26 -14 -11 -33 -19 -42 -19 -9 0 -16 -4 -16 -10 0 -5
-5 -10 -11 -10 -18 0 -121 -72 -169 -117 -24 -24 -50 -41 -58 -38 -7 2 -11 -1
-10 -8 2 -7 -16 -32 -40 -57 -23 -24 -42 -47 -42 -51 0 -4 -22 -40 -50 -81
-27 -40 -50 -81 -50 -90 0 -9 -4 -20 -10 -23 -5 -3 -10 -17 -10 -31 0 -13 5
-24 10 -24 6 0 10 9 10 20 0 11 4 20 9 20 4 0 16 20 25 44 9 24 26 52 36 61
11 10 20 23 20 29 0 15 142 178 198 229 23 20 48 37 56 37 8 0 16 3 18 8 4 9
102 72 111 72 4 0 30 11 58 25 29 13 55 22 60 19 4 -2 16 -1 26 4 69 36 131
44 328 45 167 0 301 -19 362 -51 12 -7 37 -12 55 -12 18 0 42 -7 52 -15 11 -8
28 -15 38 -15 11 0 46 -18 79 -40 33 -22 64 -40 69 -40 27 0 240 -243 240
-273 0 -8 6 -20 14 -26 8 -6 17 -28 20 -49 4 -20 9 -52 12 -69 6 -31 4 -33
-23 -33 -16 0 -39 7 -52 16 -31 22 -91 83 -91 92 0 10 -122 136 -170 176 -43
35 -161 91 -215 101 -22 4 -44 10 -50 15 -5 4 -30 10 -55 14 -25 3 -65 8 -90
12 -101 13 -376 16 -428 4 -41 -9 -56 -9 -68 1 -12 10 -13 9 -8 -5 3 -9 1 -16
-5 -16 -18 0 -102 -41 -150 -73 -47 -32 -75 -59 -186 -182 -38 -43 -77 -85
-85 -93 -27 -28 -119 -62 -168 -62 -44 -1 -46 -2 -27 -16 24 -18 78 -14 126
10 18 9 38 16 45 16 14 0 68 52 134 130 60 70 117 127 160 159 19 14 40 33 46
41 10 12 14 12 28 1 14 -11 16 -11 16 3 0 9 8 16 20 16 11 0 20 4 20 9 0 16
59 30 169 41 130 13 201 13 201 0 0 -14 27 -12 33 3 4 8 8 9 14 1 4 -6 26 -11
48 -12 79 -1 101 -5 140 -22 22 -10 61 -20 87 -23 77 -7 186 -56 240 -108 26
-25 48 -44 48 -42 0 3 19 -17 43 -44 102 -115 152 -164 173 -169 13 -3 21 -11
18 -19 -7 -18 47 -7 67 14 28 30 29 72 3 129 -13 29 -24 59 -24 66 0 7 -11 25
-24 39 -13 14 -22 28 -19 30 2 3 -7 17 -21 32 -15 16 -26 32 -26 38 0 5 -11
18 -25 29 -14 11 -25 26 -25 34 0 8 -6 14 -12 14 -7 0 -32 17 -55 38 -65 59
-271 157 -308 148 -14 -4 -25 -3 -25 2 0 12 -46 32 -75 32 -17 0 -25 6 -25 18
0 11 -3 13 -8 5 -5 -8 -21 -9 -57 -2 -68 13 -475 10 -475 -4z"/>
<path d="M1286 792 c-9 -15 22 -44 42 -38 11 4 23 2 27 -4 3 -5 14 -10 23 -10
11 0 4 8 -17 21 -18 11 -40 18 -48 14 -11 -3 -13 -1 -9 10 5 15 -9 21 -18 7z"/>
<path d="M789 768 c-12 -23 -24 -35 -94 -96 -36 -31 -43 -53 -12 -35 27 15
157 135 157 144 0 19 -40 8 -51 -13z"/>
<path d="M1110 759 c0 -5 12 -9 26 -9 14 0 23 -4 19 -10 -3 -5 2 -10 12 -10
11 0 24 -5 31 -12 9 -9 12 -8 12 4 0 17 -15 26 -67 38 -19 4 -33 4 -33 -1z"/>
<path d="M1609 689 c-11 -6 -9 -9 7 -9 12 0 33 -9 48 -21 21 -17 26 -18 26 -5
0 9 -7 16 -15 16 -8 0 -15 4 -15 9 0 13 -36 20 -51 10z"/>
<path d="M1702 618 c7 -19 38 -22 38 -4 0 10 -9 16 -21 16 -12 0 -19 -5 -17
-12z"/>
<path d="M558 594 c-21 -13 -38 -29 -38 -34 0 -17 16 -11 38 15 13 15 28 22
37 19 10 -4 15 0 15 10 0 21 -8 20 -52 -10z"/>
<path d="M470 534 c-13 -33 -13 -34 4 -34 20 0 40 26 26 35 -6 3 -8 11 -5 16
4 5 1 9 -5 9 -6 0 -15 -12 -20 -26z"/>
<path d="M347 396 c-16 -12 -24 -36 -12 -36 3 0 15 9 26 19 24 22 12 35 -14
17z"/>
</g>
</svg>
